<?xml version="1.0" standalone="no"?>
<!DOCTYPE svg PUBLIC "-//W3C//DTD SVG 20010904//EN"
 "http://www.w3.org/TR/2001/REC-SVG-20010904/DTD/svg10.dtd">
<svg version="1.0" xmlns="http://www.w3.org/2000/svg"
 width="2200.000000pt" height="2200.000000pt" viewBox="0 0 2200.000000 2200.000000"
 preserveAspectRatio="xMidYMid meet">
<metadata>
Created by potrace 1.16, written by Peter Selinger 2001-2019
</metadata>
<g transform="translate(0.000000,2200.000000) scale(0.100000,-0.100000)"
fill="#000000" stroke="none">
<path d="M10495 21494 c-27 -2 -122 -8 -210 -14 -1196 -79 -2416 -380 -3530
-870 -183 -81 -643 -308 -820 -405 -192 -106 -505 -295 -699 -422 -1097 -719
-2053 -1642 -2818 -2723 -201 -284 -452 -685 -623 -995 -97 -177 -324 -637
-405 -820 -449 -1019 -733 -2105 -844 -3220 -37 -365 -41 -475 -41 -1025 0
-550 4 -660 41 -1025 111 -1115 395 -2201 844 -3220 81 -183 308 -643 405
-820 281 -509 636 -1041 999 -1495 474 -594 1052 -1172 1646 -1646 454 -363
986 -718 1495 -999 177 -97 637 -324 820 -405 1019 -449 2105 -733 3220 -844
365 -37 475 -41 1025 -41 550 0 660 4 1025 41 1115 111 2201 395 3220 844 183
81 643 308 820 405 192 106 505 295 699 422 1097 719 2053 1642 2818 2723 201
284 452 685 623 995 97 177 324 637 405 820 449 1019 733 2105 844 3220 37
365 41 475 41 1025 0 550 -4 660 -41 1025 -111 1115 -395 2201 -844 3220 -81
183 -308 643 -405 820 -281 509 -636 1041 -999 1495 -474 594 -1052 1172
-1646 1646 -454 363 -986 718 -1495 999 -177 97 -637 324 -820 405 -977 430
-2020 711 -3080 830 -405 45 -544 52 -1090 55 -291 1 -552 1 -580 -1z m1220
-1518 c1589 -143 3000 -636 4295 -1501 1279 -854 2311 -2018 3015 -3400 531
-1044 842 -2145 952 -3370 26 -288 26 -1122 0 -1410 -143 -1599 -634 -3007
-1502 -4305 -854 -1279 -2018 -2311 -3400 -3015 -1044 -531 -2145 -842 -3370
-952 -288 -26 -1122 -26 -1410 0 -1599 143 -3007 634 -4305 1502 -1279 854
-2311 2018 -3015 3400 -531 1044 -842 2145 -952 3370 -26 288 -26 1122 0 1410
143 1599 634 3007 1502 4305 1237 1853 3140 3190 5300 3723 573 142 1075 218
1725 261 154 10 996 -3 1165 -18z"/>
<path d="M10815 19373 c-456 -10 -926 -60 -1388 -148 -545 -103 -978 -228
-1527 -440 -79 -31 -458 -198 -510 -226 -8 -4 -98 -49 -200 -99 -102 -51 -196
-100 -210 -110 -14 -9 -61 -36 -105 -59 -210 -110 -700 -431 -935 -613 -226
-175 -260 -204 -505 -418 -155 -135 -560 -540 -695 -695 -214 -245 -243 -279
-418 -505 -182 -235 -503 -725 -613 -935 -23 -44 -50 -91 -59 -105 -10 -14
-59 -108 -110 -210 -50 -102 -95 -192 -99 -200 -28 -52 -195 -431 -226 -510
-256 -663 -404 -1224 -505 -1912 -59 -403 -82 -732 -82 -1183 0 -451 23 -780
82 -1183 101 -688 249 -1249 505 -1912 31 -79 198 -458 226 -510 4 -8 49 -98
99 -200 51 -102 100 -196 110 -210 9 -14 36 -61 59 -105 110 -210 431 -700
613 -935 175 -226 204 -260 418 -505 135 -155 540 -560 695 -695 245 -214 279
-243 505 -418 235 -182 725 -503 935 -613 44 -23 91 -50 105 -59 14 -10 108
-59 210 -110 102 -50 192 -95 200 -99 52 -28 431 -195 510 -226 663 -256 1224
-404 1912 -505 403 -59 732 -82 1183 -82 451 0 780 23 1183 82 688 101 1249
249 1912 505 79 31 458 198 510 226 8 4 98 49 200 99 102 51 196 100 210 110
14 9 61 36 105 59 210 110 700 431 935 613 226 175 260 204 505 418 155 135
560 540 695 695 214 245 243 279 418 505 182 235 503 725 613 935 23 44 50 91
59 105 10 14 59 108 110 210 50 102 95 192 99 200 28 52 195 431 226 510 256
663 404 1224 505 1912 59 403 82 732 82 1183 0 451 -23 780 -82 1183 -101 688
-249 1249 -505 1912 -31 79 -198 458 -226 510 -4 8 -49 98 -99 200 -51 102
-100 196 -110 210 -9 14 -36 61 -59 105 -110 210 -431 700 -613 935 -175 226
-204 260 -418 505 -135 155 -540 560 -695 695 -245 214 -279 243 -505 418
-235 182 -725 503 -935 613 -44 23 -91 50 -105 59 -14 10 -108 59 -210 110
-102 50 -192 95 -200 99 -52 28 -431 195 -510 226 -663 256 -1224 404 -1912
505 -421 61 -929 93 -1363 83z m1005 -2073 c22 -11 45 -20 53 -20 44 0 217
-132 217 -165 0 -6 20 -38 44 -71 24 -32 53 -84 64 -114 66 -185 82 -237 82
-263 0 -16 6 -43 14 -60 8 -18 17 -54 19 -82 11 -106 30 -191 48 -223 11 -20
26 -78 34 -135 8 -56 19 -122 24 -147 35 -167 51 -272 51 -329 1 -36 7 -97 16
-136 8 -38 19 -115 25 -170 5 -55 16 -134 24 -175 8 -41 19 -118 25 -170 6
-52 15 -108 20 -125 5 -16 14 -77 20 -135 13 -127 23 -192 44 -285 9 -38 16
-85 16 -103 0 -18 9 -90 21 -160 11 -70 27 -192 35 -272 8 -80 26 -197 40
-260 14 -63 30 -158 35 -210 5 -52 14 -122 20 -155 5 -33 14 -103 19 -155 5
-52 14 -115 20 -140 5 -25 17 -90 25 -145 8 -55 21 -118 29 -140 8 -22 15 -59
16 -82 0 -59 19 -192 31 -228 6 -16 15 -66 20 -110 5 -44 18 -127 29 -185 12
-58 23 -134 25 -170 4 -68 17 -155 34 -230 22 -101 41 -210 51 -296 5 -50 14
-104 20 -120 5 -16 16 -83 24 -149 8 -66 22 -147 31 -180 9 -33 21 -112 26
-175 5 -63 16 -133 24 -155 8 -22 19 -83 25 -135 6 -52 15 -120 20 -150 5 -30
14 -98 20 -150 6 -52 17 -130 25 -174 8 -43 15 -106 15 -140 1 -33 7 -101 15
-151 8 -49 23 -145 34 -212 10 -67 24 -137 29 -155 6 -18 18 -82 26 -143 9
-60 21 -130 26 -155 5 -25 13 -65 16 -90 18 -119 128 -119 163 0 7 25 22 68
33 95 11 28 27 70 35 95 63 203 108 342 123 380 10 25 20 68 24 97 4 28 16 78
27 110 11 32 24 73 30 91 5 17 14 49 20 70 6 20 13 50 16 67 3 16 14 41 23 55
10 14 28 59 40 100 30 102 78 238 100 280 9 19 23 58 29 85 7 28 18 64 26 80
7 17 22 62 34 100 18 62 27 97 62 238 5 21 27 73 48 115 21 42 48 113 59 157
11 44 35 118 52 165 17 47 35 99 40 115 14 49 61 184 96 275 31 79 52 139 91
250 8 25 19 50 23 55 15 18 51 119 70 192 10 39 30 87 44 105 14 19 35 55 46
80 18 40 29 51 93 84 63 32 84 38 172 45 133 10 191 -6 257 -74 71 -71 114
-143 137 -226 11 -41 30 -84 40 -95 14 -15 25 -51 35 -114 8 -51 17 -96 20
-100 3 -5 10 -35 15 -68 19 -108 30 -159 45 -209 8 -27 20 -77 26 -110 6 -33
18 -74 26 -91 9 -17 19 -55 24 -85 11 -67 22 -111 54 -219 14 -47 26 -92 26
-100 0 -8 12 -55 27 -104 24 -78 32 -92 66 -117 56 -41 108 -53 442 -104 165
-25 372 -57 460 -70 88 -14 335 -51 548 -84 213 -33 394 -65 402 -71 19 -16
19 -74 1 -89 -13 -11 -112 -23 -746 -96 -118 -13 -377 -44 -575 -67 -410 -48
-599 -56 -632 -25 -11 9 -33 17 -49 17 -51 1 -116 52 -174 135 -19 28 -46 64
-61 80 -15 17 -30 46 -34 65 -4 19 -15 49 -24 65 -9 17 -25 66 -35 110 -10 44
-27 93 -38 108 -11 16 -25 64 -33 111 -7 45 -20 105 -28 132 -9 27 -22 76 -30
109 -8 33 -22 85 -31 115 -9 30 -23 87 -30 125 -20 103 -42 151 -77 165 -51
22 -74 7 -103 -65 -14 -36 -26 -79 -26 -95 0 -17 -7 -47 -16 -68 -25 -58 -64
-181 -64 -200 0 -10 -9 -43 -20 -73 -18 -52 -36 -140 -75 -364 -9 -49 -21
-103 -27 -120 -13 -40 -27 -98 -37 -165 -5 -30 -13 -68 -19 -85 -6 -16 -16
-57 -22 -90 -6 -33 -18 -91 -27 -130 -42 -189 -52 -243 -53 -282 0 -23 -9 -66
-19 -95 -10 -29 -26 -87 -36 -128 -9 -41 -21 -95 -27 -120 -6 -25 -16 -72 -23
-105 -6 -33 -18 -71 -25 -84 -17 -33 -56 -197 -100 -421 -15 -78 -28 -124 -49
-175 -11 -27 -32 -104 -47 -170 -14 -66 -34 -145 -44 -175 -10 -30 -21 -77
-24 -105 -4 -27 -22 -84 -40 -125 -19 -41 -43 -118 -55 -170 -33 -152 -42
-181 -73 -245 -15 -33 -33 -87 -38 -120 -12 -77 -66 -185 -102 -205 -15 -8
-41 -35 -58 -58 -43 -61 -136 -148 -189 -178 -44 -24 -46 -25 -104 -10 -53 14
-63 14 -89 0 -19 -10 -34 -12 -41 -6 -7 6 -41 17 -77 27 -36 9 -83 21 -105 27
-75 19 -163 97 -200 174 -8 18 -20 56 -25 86 -5 29 -30 92 -55 140 -25 48 -45
92 -45 99 0 34 -34 121 -57 143 -21 21 -27 40 -33 94 -3 37 -13 83 -22 103 -9
20 -19 60 -23 90 -4 30 -18 106 -32 169 -14 63 -29 138 -33 165 -5 28 -13 82
-20 120 -6 39 -11 86 -11 105 0 19 -5 53 -11 75 -6 22 -14 67 -19 100 -16 115
-48 330 -59 395 -49 290 -60 364 -60 394 0 19 -9 79 -19 133 -22 109 -35 189
-52 308 -6 44 -19 107 -30 140 -10 33 -26 117 -35 185 -9 69 -20 154 -25 190
-5 36 -13 103 -18 150 -5 47 -18 108 -29 135 -21 49 -44 245 -48 395 -2 79
-29 283 -49 365 -8 33 -22 105 -30 159 -9 55 -18 103 -21 108 -5 8 -40 202
-80 438 -13 80 -26 152 -30 160 -5 14 -24 118 -75 404 -10 60 -23 123 -28 140
-6 17 -15 69 -21 116 -6 47 -18 108 -25 135 -7 28 -21 95 -29 151 -9 55 -20
114 -25 130 -6 16 -17 78 -26 138 -8 59 -18 112 -21 117 -4 8 -19 85 -75 403
-10 60 -23 123 -28 140 -5 17 -15 65 -21 106 -14 97 -18 108 -41 120 -45 25
-68 -17 -104 -185 -17 -82 -36 -167 -60 -265 -7 -30 -16 -77 -20 -105 -3 -27
-12 -72 -19 -100 -8 -27 -21 -84 -30 -125 -9 -41 -22 -92 -27 -113 -6 -21 -17
-75 -25 -120 -8 -45 -20 -109 -28 -142 -32 -135 -48 -205 -66 -295 -10 -52
-26 -126 -34 -165 -17 -71 -32 -140 -60 -275 -37 -177 -48 -228 -61 -285 -8
-33 -21 -91 -30 -130 -9 -38 -21 -87 -26 -108 -6 -21 -17 -75 -25 -120 -8 -45
-20 -109 -28 -142 -32 -135 -48 -205 -66 -295 -10 -52 -26 -126 -34 -165 -17
-71 -32 -140 -60 -275 -48 -228 -59 -278 -91 -410 -7 -30 -16 -77 -20 -105 -3
-27 -12 -72 -19 -100 -8 -27 -21 -84 -30 -125 -9 -41 -22 -92 -27 -113 -6 -21
-17 -75 -25 -120 -8 -45 -21 -111 -29 -147 -19 -78 -37 -161 -64 -295 -11 -55
-32 -155 -46 -222 -14 -67 -25 -141 -25 -165 0 -24 -9 -61 -19 -83 -11 -22
-25 -67 -31 -100 -7 -33 -18 -83 -26 -112 -8 -28 -14 -63 -14 -78 0 -15 -7
-51 -16 -80 -8 -30 -21 -91 -29 -137 -8 -46 -21 -117 -29 -158 -18 -90 -30
-155 -50 -274 -9 -48 -22 -115 -31 -148 -8 -33 -15 -76 -15 -96 0 -49 -19
-145 -42 -217 -11 -33 -24 -80 -28 -105 -8 -42 -22 -107 -56 -262 -8 -37 -21
-134 -29 -215 -9 -81 -21 -166 -27 -188 -6 -22 -17 -71 -23 -110 -7 -38 -20
-99 -28 -135 -9 -36 -28 -117 -42 -180 -15 -63 -34 -128 -42 -143 -15 -30 -29
-86 -65 -267 -11 -58 -32 -136 -45 -175 -82 -235 -84 -238 -125 -304 -16 -25
-28 -52 -28 -60 0 -24 -31 -51 -60 -51 -15 0 -35 -9 -45 -20 -14 -16 -31 -20
-77 -20 -43 0 -70 -6 -97 -22 -36 -21 -43 -21 -102 -11 -35 7 -102 15 -149 18
-136 10 -188 48 -303 217 -25 36 -55 84 -65 105 -11 21 -32 49 -47 63 -31 29
-60 91 -70 151 -4 24 -12 53 -17 63 -6 11 -21 58 -34 105 -12 47 -39 139 -58
204 -20 65 -36 136 -36 157 0 21 -9 67 -20 102 -11 34 -20 84 -20 109 0 26
-10 82 -21 125 -12 44 -25 124 -29 179 -4 55 -14 118 -23 141 -8 23 -15 56
-15 75 1 49 -21 195 -37 254 -8 28 -26 118 -40 200 -14 83 -32 166 -40 185 -8
19 -19 75 -25 124 -6 49 -17 101 -24 115 -7 14 -16 53 -19 87 -6 54 -28 154
-72 324 -8 30 -17 85 -20 123 -4 37 -16 109 -27 160 -11 50 -23 130 -28 177
-12 107 -22 150 -48 192 -14 23 -24 63 -31 128 -5 52 -21 130 -35 174 -14 43
-26 99 -26 125 0 58 -23 190 -38 217 -6 12 -9 23 -7 26 5 5 -22 175 -30 189
-13 19 -48 175 -51 219 -1 25 -7 70 -14 100 -6 30 -22 123 -35 205 -13 83 -31
180 -39 216 -8 36 -24 126 -36 200 -27 180 -35 215 -60 274 -30 70 -62 210
-61 270 0 27 -6 73 -14 100 -8 28 -22 88 -31 135 -8 47 -24 111 -35 142 -10
32 -24 92 -30 134 -9 68 -51 202 -79 254 -16 30 -46 43 -70 30 -29 -15 -50
-62 -81 -175 -14 -55 -34 -125 -43 -155 -19 -65 -45 -171 -52 -220 -3 -19 -12
-48 -19 -65 -7 -16 -19 -50 -25 -75 -7 -25 -16 -56 -20 -70 -5 -14 -20 -79
-35 -145 -15 -66 -30 -131 -35 -145 -5 -14 -12 -45 -16 -69 -3 -24 -13 -60
-21 -80 -9 -20 -31 -97 -50 -171 -19 -74 -39 -151 -45 -170 -5 -19 -17 -75
-25 -125 -8 -49 -22 -112 -29 -140 -48 -177 -81 -277 -107 -325 -47 -85 -135
-198 -160 -205 -12 -4 -40 -19 -61 -34 l-39 -26 -241 0 c-170 0 -313 7 -486
23 -135 12 -528 47 -873 77 -390 33 -634 58 -643 66 -18 15 -18 73 1 89 8 7
351 52 852 111 461 55 872 104 913 109 41 5 98 11 127 13 68 6 174 56 203 96
25 36 27 43 75 249 18 78 36 150 40 160 4 9 13 49 20 87 8 39 23 95 34 125 11
30 20 70 21 88 0 18 7 58 15 90 25 99 46 185 60 247 25 110 54 209 75 265 22
56 51 153 74 246 7 27 16 56 20 63 5 7 14 38 21 69 7 32 20 83 29 115 9 32 16
69 16 83 0 14 8 41 19 62 10 20 22 57 26 82 11 72 55 231 76 276 10 22 19 47
19 55 0 8 10 39 21 69 12 30 28 80 35 110 24 94 57 194 71 216 7 11 17 45 23
75 8 45 18 61 54 97 33 31 53 42 76 42 17 0 45 7 62 16 34 18 54 15 146 -17
56 -20 70 -30 121 -93 76 -95 87 -113 106 -182 10 -32 26 -73 36 -90 10 -17
30 -65 43 -105 14 -41 34 -94 45 -119 11 -25 21 -56 21 -68 0 -13 6 -36 14
-50 8 -15 27 -72 42 -127 14 -55 30 -104 34 -110 4 -5 12 -30 18 -55 6 -25 20
-72 31 -104 12 -33 21 -70 21 -82 0 -13 6 -41 14 -61 30 -85 39 -121 52 -202
7 -47 20 -108 29 -136 9 -27 23 -70 32 -95 8 -25 19 -67 24 -95 12 -65 33
-155 65 -280 14 -55 31 -127 38 -160 7 -33 19 -73 28 -90 8 -16 18 -50 22 -75
4 -25 15 -72 26 -105 10 -33 31 -103 45 -155 14 -52 34 -113 44 -135 44 -100
50 -115 57 -151 6 -36 86 -334 120 -449 8 -27 21 -81 29 -120 14 -73 57 -238
74 -290 11 -34 30 -105 65 -250 13 -55 34 -131 46 -170 25 -78 23 -73 45 -209
9 -54 24 -115 34 -135 10 -20 21 -61 24 -91 6 -48 17 -95 67 -285 10 -38 21
-83 55 -215 8 -30 21 -82 29 -115 9 -33 16 -80 16 -105 0 -25 10 -70 21 -100
12 -30 27 -92 34 -138 8 -47 23 -98 36 -119 13 -21 28 -71 36 -120 27 -170 91
-227 169 -149 25 25 34 43 34 67 1 39 10 78 38 164 11 33 32 103 46 155 24 91
33 131 91 394 15 66 32 131 39 145 28 55 96 408 125 646 19 154 77 438 116
565 8 25 17 65 20 90 4 25 13 68 21 95 8 28 22 100 30 160 8 61 24 143 34 184
11 40 23 103 26 140 4 36 13 95 21 131 8 36 19 90 24 120 4 30 12 80 18 110 5
30 14 84 19 120 6 36 15 78 21 93 6 16 11 43 11 61 0 18 7 41 15 52 8 10 15
35 15 55 0 20 7 56 15 79 8 23 15 59 15 79 0 21 7 57 15 82 8 24 21 96 30 159
16 123 31 183 52 215 7 11 13 42 13 71 0 28 4 75 9 105 6 30 15 95 21 144 13
102 18 130 61 310 18 72 40 147 51 168 22 44 40 130 62 302 9 66 25 154 37
195 11 41 25 104 29 140 24 175 32 220 50 280 10 36 24 102 29 147 6 46 17 95
25 110 8 16 19 73 26 128 7 55 20 120 30 145 10 25 23 88 30 140 7 52 17 106
22 120 11 26 29 141 28 173 -3 68 0 90 18 157 18 70 29 116 81 345 11 50 30
131 42 180 11 50 25 117 29 150 24 169 52 302 71 339 15 29 22 63 24 116 2 44
14 112 29 164 14 48 26 103 26 122 0 18 9 48 20 66 11 18 20 43 20 56 0 12 7
39 16 60 8 20 28 87 44 148 16 61 47 164 70 230 22 65 40 127 40 136 0 28 47
126 97 202 97 147 194 226 293 237 95 11 110 10 150 -11z"/>
</g>
</svg>
